<?xml version="1.0" standalone="no"?>
<!DOCTYPE svg PUBLIC "-//W3C//DTD SVG 20010904//EN"
 "http://www.w3.org/TR/2001/REC-SVG-20010904/DTD/svg10.dtd">
<svg version="1.0" xmlns="http://www.w3.org/2000/svg"
 width="2000.000000pt" height="1500.000000pt" viewBox="0 0 2000.000000 1500.000000"
 preserveAspectRatio="xMidYMid meet">

<g transform="translate(0.000000,1500.000000) scale(0.100000,-0.100000)"
fill="#000000" stroke="none">
<path d="M2500 7505 l0 -2865 7500 0 7500 0 0 2865 0 2865 -7500 0 -7500 0 0
-2865z m14860 0 l0 -2735 -7360 0 -7360 0 0 2735 0 2735 7360 0 7360 0 0
-2735z"/>
<path d="M2910 7505 l0 -2455 7090 0 7090 0 0 2455 0 2455 -7090 0 -7090 0 0
-2455z m5700 2034 c514 -47 922 -272 1221 -673 321 -431 454 -1115 353 -1816
-36 -254 -128 -534 -239 -730 -165 -292 -444 -557 -726 -689 -372 -175 -844
-216 -1274 -112 -466 113 -864 442 -1085 896 -98 201 -156 400 -197 670 -25
172 -25 668 0 840 88 588 312 994 719 1302 315 239 769 354 1228 312z m-5200
-28 c151 -32 296 -36 1445 -36 1172 0 1293 3 1465 39 36 8 65 13 66 12 1 0 -7
-56 -17 -124 -21 -143 -39 -504 -39 -779 l0 -193 -70 0 c-64 0 -70 2 -75 23
-2 12 -25 184 -50 382 -25 198 -51 370 -58 384 -17 35 -58 62 -108 72 -24 4
-225 8 -446 9 l-403 0 0 -1809 c0 -1669 1 -1810 17 -1822 13 -11 80 -15 315
-17 l298 -3 0 -54 0 -55 -890 0 -890 0 0 55 0 55 289 0 c277 0 289 1 315 21
l26 20 0 1805 0 1805 -432 -3 c-401 -3 -436 -4 -471 -22 -21 -10 -45 -32 -53
-49 -10 -18 -33 -163 -60 -371 -24 -187 -46 -360 -49 -383 l-6 -43 -75 0 -74
0 0 313 c0 325 -11 527 -35 684 -18 113 -19 105 3 99 9 -3 37 -10 62 -15z
m8202 -203 c483 -1230 1204 -3048 1208 -3048 3 0 284 721 625 1603 l620 1602
448 3 447 2 0 -54 0 -55 -171 -3 c-166 -3 -171 -4 -190 -27 -19 -23 -19 -67
-19 -1828 l0 -1804 25 -24 c24 -25 27 -25 190 -25 l165 0 0 -55 0 -55 -635 0
-635 0 0 54 0 55 171 3 c166 3 171 4 190 27 19 23 19 63 19 1625 0 880 -4
1594 -9 1586 -4 -8 -298 -766 -652 -1683 l-644 -1668 -109 3 -110 3 -645 1625
-646 1625 -3 -1550 -2 -1550 25 -22 c25 -22 34 -23 191 -23 l164 0 0 -55 0
-55 -490 0 -490 0 0 55 0 55 165 0 c163 0 166 0 190 25 l25 24 0 1808 c0 994
-4 1813 -8 1819 -18 28 -56 34 -211 34 l-161 0 0 55 0 55 449 0 449 0 64 -162z
m5058 107 l0 -55 -165 0 c-163 0 -166 0 -191 -25 l-24 -24 2 -1810 c3 -1722 4
-1811 21 -1828 15 -16 40 -18 187 -21 l170 -3 0 -55 0 -54 -635 0 -635 0 0 54
0 55 170 3 c147 3 172 5 187 21 17 17 18 106 21 1826 2 1770 2 1809 -17 1832
-19 23 -24 24 -190 27 l-171 3 0 55 0 54 635 0 635 0 0 -55z"/>
<path d="M8247 9370 c-352 -63 -649 -314 -846 -715 -156 -317 -231 -689 -231
-1150 0 -461 75 -833 231 -1150 194 -393 475 -636 819 -707 126 -26 345 -21
465 11 433 116 792 556 924 1135 51 222 71 421 71 711 0 290 -20 489 -71 711
-113 497 -388 889 -744 1065 -147 72 -228 91 -415 95 -85 1 -177 -1 -203 -6z"/>
</g>
</svg>
